<?xml version="1.0" encoding="UTF-8"?>
<svg id="Capa_1" data-name="Capa 1" xmlns="http://www.w3.org/2000/svg" xmlns:xlink="http://www.w3.org/1999/xlink" viewBox="0 0 157 41.5797">
  <defs>
    <style>
      .cls-1, .cls-2 {
        fill: #d8d8d8;
      }

      .cls-3 {
        fill: #1b1f23;
      }

      .cls-4 {
        filter: url(#drop-shadow-1);
      }

      .cls-5 {
        fill: url(#Degradado_sin_nombre_25);
      }

      .cls-2 {
        fill-rule: evenodd;
      }
    </style>
    <filter id="drop-shadow-1" filterUnits="userSpaceOnUse">
      <feOffset dx="0" dy="0"/>
      <feGaussianBlur result="blur" stdDeviation="2"/>
      <feFlood flood-color="#000" flood-opacity=".4"/>
      <feComposite in2="blur" operator="in"/>
      <feComposite in="SourceGraphic"/>
    </filter>
    <linearGradient id="Degradado_sin_nombre_25" data-name="Degradado sin nombre 25" x1="78.5004" y1="40.6559" x2="78.5004" y2=".5797" gradientUnits="userSpaceOnUse">
      <stop offset=".073" stop-color="#fff" stop-opacity=".7"/>
      <stop offset="1" stop-color="#d8d8d8" stop-opacity="0"/>
    </linearGradient>
  </defs>
  <path class="cls-1" d="M140.5,41.5797H16.5C7.4023,41.5797,0,34.0727,0,24.8464v-8.1131C0,7.5065,7.4023,0,16.5,0h124c9.0977,0,16.5,7.5065,16.5,16.7333v8.1131c0,9.2263-7.4023,16.7333-16.5,16.7333ZM16.5,1.0141C7.9531,1.0141,1,8.0656,1,16.7333v8.1131c0,8.6677,6.9531,15.7192,15.5,15.7192h124c8.5469,0,15.5-7.0514,15.5-15.7192v-8.1131c0-8.6677-6.9531-15.7192-15.5-15.7192H16.5Z"/>
  <g class="cls-4">
    <path class="cls-3" d="M16.8974,1.0798h123.2051c8.7799,0,15.8974,7.0875,15.8974,15.8304v7.9152c0,8.7429-7.1175,15.8304-15.8974,15.8304H16.8974c-8.7799,0-15.8974-7.0875-15.8974-15.8304v-7.9152C1,8.1673,8.1175,1.0798,16.8974,1.0798Z"/>
  </g>
  <path class="cls-2" d="M21.7159,4.6221c-8.5052,0-15.394,6.8888-15.394,15.394,0,6.8118,4.4065,12.5654,10.5256,14.6051,.7697,.1347,1.0583-.3271,1.0583-.7312,0-.3656-.0192-1.5779-.0192-2.8671-3.8677,.712-4.8684-.9429-5.1762-1.8088-.1732-.4426-.9236-1.8088-1.5779-2.1744-.5388-.2886-1.3085-1.0006-.0192-1.0199,1.2123-.0192,2.0782,1.1161,2.3668,1.5779,1.3855,2.3283,3.5983,1.6741,4.4835,1.27,.1347-1.0006,.5388-1.6741,.9814-2.0589-3.4252-.3848-7.0043-1.7126-7.0043-7.6008,0-1.6741,.5965-3.0596,1.5779-4.1371-.1539-.3848-.6927-1.9627,.1539-4.0794,0,0,1.2892-.4041,4.2334,1.5779,1.2315-.3464,2.54-.5195,3.8485-.5195s2.617,.1732,3.8485,.5195c2.9441-2.0012,4.2334-1.5779,4.2334-1.5779,.8467,2.1167,.3079,3.6946,.1539,4.0794,.9814,1.0776,1.5779,2.4438,1.5779,4.1371,0,5.9074-3.5983,7.2159-7.0235,7.6008,.558,.4811,1.0391,1.4047,1.0391,2.8479,0,2.0589-.0192,3.7138-.0192,4.2334,0,.4041,.2886,.8852,1.0583,.7312,6.0806-2.0397,10.4872-7.8125,10.4872-14.6051,0-8.5052-6.8888-15.394-15.394-15.394Z"/>
  <g>
    <path class="cls-1" d="M42.46,20.1113v-.0234c0-2.3027,1.7861-4.2529,4.3115-4.2529s4.2891,1.915,4.2891,4.2295v.0234c0,2.3027-1.7861,4.2529-4.3125,4.2529s-4.2881-1.915-4.2881-4.2295Zm7.085,0v-.0234c0-1.5977-1.1514-2.9136-2.7969-2.9136-1.6328,0-2.7725,1.2925-2.7725,2.8901v.0234c0,1.5977,1.1514,2.9141,2.7959,2.9141,1.6338,0,2.7734-1.293,2.7734-2.8906Z"/>
    <path class="cls-1" d="M52.6357,17.9966h1.4336v1.0337c.458-.6455,1.0928-1.1631,2.1152-1.1631,1.457,0,2.8779,1.1514,2.8779,3.2197v.0234c0,2.0674-1.4092,3.2188-2.8779,3.2188-1.0342,0-1.6807-.5166-2.1152-1.0928v2.8438h-1.4336v-8.0835Zm4.9824,3.1138v-.0234c0-1.1982-.8232-1.9863-1.7744-1.9863-.9756,0-1.8096,.7998-1.8096,1.9863v.0234c0,1.1865,.834,1.9854,1.8096,1.9854,.9746,0,1.7744-.7637,1.7744-1.9854Z"/>
    <path class="cls-1" d="M60.1904,21.122v-.0234c0-1.7861,1.2578-3.2314,3.0322-3.2314,1.9736,0,2.9717,1.5508,2.9717,3.3369,0,.1289-.0117,.2588-.0234,.3994h-4.5586c.1533,1.0225,.8584,1.5742,1.7861,1.5742,.7051,0,1.1748-.2578,1.6797-.7402l.835,.7402c-.5996,.7051-1.3984,1.1631-2.5381,1.1631-1.7861,0-3.1846-1.3037-3.1846-3.2188Zm4.5947-.458c-.0947-.9053-.6348-1.6338-1.5742-1.6338-.8818,0-1.4805,.6582-1.6104,1.6338h3.1846Z"/>
    <path class="cls-1" d="M67.6172,17.9966h1.4336v.9517c.4111-.5762,.9639-1.0811,1.9385-1.0811,1.4102,0,2.209,.9287,2.209,2.373v3.96h-1.4219v-3.5244c0-.9756-.4814-1.5156-1.3271-1.5156-.834,0-1.3984,.5635-1.3984,1.5391v3.501h-1.4336v-6.2036Z"/>
    <path class="cls-1" d="M78.4629,15.6938h1.5273v1.3511h-1.5273v-1.3511Zm.0479,2.3027h1.4326v6.2036h-1.4326v-6.2036Z"/>
    <path class="cls-1" d="M81.7881,17.9966h1.4336v.9517c.4111-.5762,.9639-1.0811,1.9385-1.0811,1.4102,0,2.209,.9287,2.209,2.373v3.96h-1.4219v-3.5244c0-.9756-.4814-1.5156-1.3271-1.5156-.834,0-1.3984,.5635-1.3984,1.5391v3.501h-1.4336v-6.2036Z"/>
    <path class="cls-1" d="M92.4111,20.1113v-.0234c0-2.3027,1.751-4.2529,4.2412-4.2529,1.4219,0,2.3145,.3994,3.1611,1.1157l-.917,1.0928c-.6348-.5405-1.2686-.8691-2.3027-.8691-1.5039,0-2.667,1.3159-2.667,2.8901v.0234c0,1.6924,1.1162,2.9375,2.7959,2.9375,.7871,0,1.4805-.2471,1.9863-.623v-1.5273h-2.1035v-1.2686h3.501v3.4541c-.8223,.6934-1.9736,1.2803-3.4307,1.2803-2.5732,0-4.2646-1.832-4.2646-4.2295Z"/>
    <path class="cls-1" d="M101.8457,15.6938h1.5273v1.3511h-1.5273v-1.3511Zm.0479,2.3027h1.4326v6.2036h-1.4326v-6.2036Z"/>
    <path class="cls-1" d="M105.4766,22.4844v-3.2656h-.7871v-1.2222h.7871v-1.7036h1.4219v1.7036h1.668v1.2222h-1.668v3.043c0,.5518,.2822,.7754,.7637,.7754,.3057,0,.5996-.0703,.8809-.2119v1.1631c-.3643,.2002-.7285,.3174-1.2803,.3174-1.0459,0-1.7861-.458-1.7861-1.8213Z"/>
    <path class="cls-1" d="M110.001,15.623h1.4336v3.3252c.4111-.5762,.9639-1.0811,1.9385-1.0811,1.4102,0,2.209,.9287,2.209,2.373v3.96h-1.4219v-3.5244c0-.9756-.4814-1.5156-1.3271-1.5156-.834,0-1.3984,.5635-1.3984,1.5391v3.501h-1.4336V15.623Z"/>
    <path class="cls-1" d="M117.2275,21.9443v-3.9478h1.4219v3.5249c0,.9746,.4814,1.5039,1.3271,1.5039,.835,0,1.3984-.5527,1.3984-1.5273v-3.5015h1.4336v6.2036h-1.4336v-.9639c-.4111,.5996-.9863,1.0928-1.9385,1.0928-1.4102,0-2.209-.9277-2.209-2.3848Z"/>
    <path class="cls-1" d="M126.0049,23.2363v.9639h-1.4336V15.623h1.4336v3.4072c.458-.6455,1.0928-1.1631,2.1152-1.1631,1.457,0,2.8779,1.1514,2.8779,3.2197v.0234c0,2.0674-1.4092,3.2188-2.8779,3.2188-1.0342,0-1.6807-.5166-2.1152-1.0928Zm3.5488-2.126v-.0234c0-1.1982-.8232-1.9863-1.7744-1.9863-.9756,0-1.8096,.7998-1.8096,1.9863v.0234c0,1.1865,.834,1.9854,1.8096,1.9854,.9746,0,1.7744-.7637,1.7744-1.9854Z"/>
    <path class="cls-1" d="M132.2559,22.5791h1.5625v1.6211h-1.5625v-1.6211Z"/>
    <path class="cls-1" d="M135.5342,15.6938h1.5283v1.3511h-1.5283v-1.3511Zm.0479,2.3027h1.4326v6.2036h-1.4326v-6.2036Z"/>
    <path class="cls-1" d="M138.5303,21.1338v-.0234c0-1.7744,1.4102-3.2432,3.3135-3.2432,1.915,0,3.3018,1.4453,3.3018,3.2197v.0234c0,1.75-1.4102,3.2305-3.3252,3.2305-1.8916,0-3.29-1.4443-3.29-3.207Zm5.1934,0v-.0234c0-1.0928-.7871-1.998-1.9033-1.998-1.1396,0-1.8682,.8936-1.8682,1.9746v.0234c0,1.0811,.7988,1.9854,1.8916,1.9854,1.1631,0,1.8799-.8926,1.8799-1.9619Z"/>
  </g>
  <path class="cls-5" d="M140.1055,40.6559H16.8953C7.8556,40.6559,.5004,33.4196,.5004,24.525v-7.8154C.5004,7.8156,7.8556,.5797,16.8953,.5797h123.2102c9.0397,0,16.3949,7.2358,16.3949,16.1299v7.8154c0,8.8945-7.3552,16.1309-16.3949,16.1309ZM16.8953,1.5797C8.4029,1.5797,1.494,8.3668,1.494,16.7096v7.8154c0,8.3428,6.9088,15.1309,15.4013,15.1309h123.2102c8.4924,0,15.4013-6.7881,15.4013-15.1309v-7.8154c0-8.3428-6.9088-15.1299-15.4013-15.1299H16.8953Z"/>
</svg>