<?xml version="1.0" encoding="UTF-8"?>
<svg id="Capa_1" data-name="Capa 1" xmlns="http://www.w3.org/2000/svg" viewBox="0 0 1155.54 202.56">
  <defs>
    <style>
      .cls-1 {
        fill: #fff;
      }

      .cls-2 {
        fill: #e51d2b;
      }
    </style>
  </defs>
  <g>
    <path d="M268.38,64.25h-29.12v9.1h-9.1v10.92h9.1v9.1h9.1v7.28h-9.1v9.1h-9.1v56.42h9.1v9.1h29.12v-9.1h9.1v-56.42h-9.1v-9.1h-9.1v-9.1h-9.1v-9.1h-9.1v-7.28h36.4v-10.92h-9.1Zm-10.92,38.22v9.1h9.1v52.78h-25.48v-52.78h9.1v-9.1h7.28Z"/>
    <path d="M341.17,160.71v-60.06h-10.92v9.1h-7.28v-9.1h-20.02v9.1h-9.1v56.42h9.1v9.1h20.02v-9.1h11.83v9.1h10.92v-10.92h-4.55v-3.64Zm-14.56-5.46h-5.46v9.1h-16.38v-52.78h16.38v9.1h9.1v34.58h-3.64Z"/>
    <path d="M395.77,109.75v-9.1h-20.02v9.1h-7.28v-9.1h-10.92v74.61h10.92v-54.6h9.1v-9.1h16.38v63.7h10.92V109.75h-9.1Z"/>
    <path d="M421.25,100.65v74.61h10.92V100.65h-10.92Z"/>
    <path d="M421.25,73.35v20.02h10.92v-20.02h-10.92Z"/>
    <path d="M443.99,73.35v29.12h10.92v-29.12h-10.92Z"/>
    <path d="M504.96,109.75v-9.1h-29.12v9.1h-9.1v20.02h9.1v9.1h9.1v4.55h9.1v4.55h9.1v16.38h-25.48v-18.2h-10.92v20.02h9.1v9.1h29.12v-9.1h9.1v-20.02h-9.1v-9.1h-9.1v-4.55h-9.1v-4.55h-9.1v-16.38h25.48v18.2h10.92v-20.02h-9.1Z"/>
    <path d="M595.95,109.75v-9.1h-20.02v9.1h-7.28v-9.1h-10.92v101.91h10.92v-36.4h7.28v9.1h20.02v-9.1h9.1v-56.42h-9.1Zm-9.1,54.6h-9.1v-9.1h-9.1v-34.58h9.1v-9.1h16.38v52.78h-7.28Z"/>
    <path d="M650.54,109.75v-9.1h-20.02v9.1h-9.1v65.52h10.92v-63.7h16.38v18.2h10.92v-20.02h-9.1Z"/>
    <path d="M718.79,166.17v-56.42h-9.1v-9.1h-29.12v9.1h-9.1v56.42h9.1v9.1h29.12v-9.1h9.1Zm-18.2-1.82h-18.2v-52.78h25.48v52.78h-7.28Z"/>
    <path d="M735.16,73.35v20.02h10.92v-20.02h-10.92Z"/>
    <path d="M735.16,100.65v90.99h-18.2v10.92h20.02v-9.1h9.1V100.65h-10.92Z"/>
    <path d="M800.68,109.75v-9.1h-29.12v9.1h-9.1v56.42h9.1v9.1h29.12v-9.1h9.1v-10.92h-10.92v9.1h-25.48v-25.48h36.4v-29.12h-9.1Zm-5.46,18.2h-21.84v-16.38h25.48v16.38h-3.64Z"/>
    <path d="M859.82,109.75v-9.1h-29.12v9.1h-9.1v56.42h9.1v9.1h29.12v-9.1h9.1v-10.92h-10.92v9.1h-25.48v-52.78h25.48v9.1h10.92v-10.92h-9.1Z"/>
    <path d="M905.32,100.65h-9.1v-18.2h-10.92v18.2h-9.1v10.92h9.1v54.6h9.1v9.1h20.02v-10.92h-18.2v-52.78h18.2v-10.92h-9.1Z"/>
    <path d="M996.31,73.35v-9.1h-29.12v9.1h-9.1v27.3h-9.1v10.92h9.1v63.7h10.92v-63.7h18.2v-10.92h-18.2v-25.48h25.48v18.2h10.92v-20.02h-9.1Z"/>
    <path d="M994.49,100.65v74.61h10.92V100.65h-10.92Z"/>
    <path d="M1021.78,64.25v111.01h10.92V64.25h-10.92Z"/>
    <path d="M1087.3,109.75v-9.1h-29.12v9.1h-9.1v56.42h9.1v9.1h29.12v-9.1h9.1v-10.92h-10.92v9.1h-25.48v-25.48h36.4v-29.12h-9.1Zm-5.46,18.2h-21.84v-16.38h25.48v16.38h-3.64Z"/>
    <path d="M1150.08,109.75h-3.64v-9.1h-29.12v9.1h-9.1v20.02h9.1v9.1h9.1v4.55h9.1v4.55h9.1v16.38h-25.48v-18.2h-10.92v20.02h9.1v9.1h29.12v-9.1h9.1v-20.02h-9.1v-9.1h-9.1v-4.55h-9.1v-4.55h-9.1v-16.38h25.48v18.2h10.92v-20.02h-5.46Z"/>
  </g>
  <rect class="cls-2" x="0" y="46.02" width="192" height="147" rx="73.5" ry="73.5"/>
  <path class="cls-1" d="M107.31,65.05h-27.81v8.69h-8.69v10.43h8.69v8.69h8.69v6.95h-8.69v8.69h-8.69v53.89h8.69v8.69h27.81v-8.69h8.69v-53.89h-8.69v-8.69h-8.69v-8.69h-8.69v-8.69h-8.69v-6.95h34.77v-10.43h-8.69Zm-10.43,36.51v8.69h8.69v50.41h-24.34v-50.41h8.69v-8.69h6.95Z"/>
  <g>
    <path d="M248.65,0V18.86h-3.02v-3.77h-8.3v3.77h-3.77v23.39h3.77v3.77h8.3v-3.77h3.02v3.77h4.53V0h-4.53Zm-1.51,37.72h-2.26v3.77h-6.79V19.62h6.79v3.77h3.77v14.33h-1.51Z"/>
    <path d="M273.17,15.09v15.09h-1.89v3.77h-1.89v3.77h-3.02v-3.77h-1.89v-3.77h-1.89V15.09h-4.53v15.84h1.89v3.77h1.89v3.77h1.89v3.77h1.89v3.77h4.53v-3.77h1.89v-3.77h1.89v-3.77h1.89v-3.77h1.89V15.09h-4.53Z"/>
    <path d="M282.6,3.77V12.07h4.53V3.77h-4.53Z"/>
    <path d="M282.6,15.09v30.93h4.53V15.09h-4.53Z"/>
    <path d="M305.98,18.86v-3.77h-8.3v3.77h-3.77v27.16h4.53V19.62h6.79v7.54h4.53v-8.3h-3.77Z"/>
    <path d="M328.62,15.09h-15.84v4.53h11.32v3.02h-1.89v3.77h-1.89v3.77h-1.89v3.77h-1.89v3.77h-1.89v3.77h-1.89v4.53h19.62v-4.53h-13.2v-3.02h1.89v-3.77h1.89v-3.77h1.89v-3.77h1.89v-3.77h1.89v-3.77h3.77v-4.53h-3.77Z"/>
    <path d="M343.71,24.9v-2.26h-1.89v-3.77h-1.89v-3.77h-4.53v4.53h1.89v3.77h1.89v3.77h1.89v6.79h-1.89v3.77h-1.89v3.77h-1.89v4.53h4.53v-3.77h1.89v-3.77h1.89v-3.77h1.89v-8.3h-1.89v-1.51Z"/>
    <path d="M352.38,15.09v3.77h-1.89v3.77h-1.89v3.77h-1.89v8.3h1.89v3.77h1.89v3.77h1.89v3.77h4.53v-4.53h-1.89v-3.77h-1.89v-3.77h-1.89v-6.79h1.89v-3.77h1.89v-3.77h1.89v-4.53h-4.53Z"/>
    <path d="M379.17,42.25h2.26v-4.53h-4.53v3.77h-10.56V19.62h10.56v3.77h4.53v-4.53h-3.77v-3.77h-12.07v3.77h-3.77v23.39h3.77v3.77h12.07v-3.77h1.51Z"/>
    <path d="M405.95,12.07v-3.77h1.89v-3.77h1.89V0h-4.53V3.77h-1.89v3.77h-1.89v3.77h-1.89v3.77h-1.89v3.77h-1.89v3.77h-1.89v3.77h-1.89v3.77h-1.89v3.77h-1.89v3.77h-1.89v3.77h-1.89v3.77h-1.89v3.77h-1.89v3.77h-1.89v4.53h4.53v-3.77h1.89v-3.77h1.89v-3.77h1.89v-3.77h1.89v-3.77h1.89v-3.77h1.89v-3.77h1.89v-3.77h1.89v-3.77h1.89v-3.77h1.89v-3.77h1.89v-3.77h1.89Z"/>
    <path d="M417.27,15.09h-3.77V7.54h-4.53v7.54h-3.77v4.53h3.77v22.63h3.77v3.77h8.3v-4.53h-7.54V19.62h7.54v-4.53h-3.77Z"/>
    <path d="M441.79,18.86v-3.77h-12.07v3.77h-3.77v23.39h3.77v3.77h12.07v-3.77h3.77v-4.53h-4.53v3.77h-10.56v-10.56h15.09v-12.07h-3.77Zm-2.26,7.54h-9.05v-6.79h10.56v6.79h-1.51Z"/>
    <path d="M466.31,18.86v-3.77h-12.07v3.77h-3.77v8.3h3.77v3.77h3.77v1.89h3.77v1.89h3.77v6.79h-10.56v-7.54h-4.53v8.3h3.77v3.77h12.07v-3.77h3.77v-8.3h-3.77v-3.77h-3.77v-1.89h-3.77v-1.89h-3.77v-6.79h10.56v7.54h4.53v-8.3h-3.77Z"/>
    <path d="M487.05,15.09h-3.77V7.54h-4.53v7.54h-3.77v4.53h3.77v22.63h3.77v3.77h8.3v-4.53h-7.54V19.62h7.54v-4.53h-3.77Z"/>
    <path d="M511.57,18.86v-3.77h-8.3v3.77h-3.02v-3.77h-4.53V57.34h4.53v-15.09h3.02v3.77h8.3v-3.77h3.77V18.86h-3.77Zm-3.77,22.63h-3.77v-3.77h-3.77v-14.33h3.77v-3.77h6.79v21.88h-3.02Z"/>
    <path d="M534.21,18.86v-3.77h-8.3v3.77h-3.77v27.16h4.53V19.62h6.79v7.54h4.53v-8.3h-3.77Z"/>
    <path d="M562.5,42.25V18.86h-3.77v-3.77h-12.07v3.77h-3.77v23.39h3.77v3.77h12.07v-3.77h3.77Zm-7.54-.75h-7.54V19.62h10.56v21.88h-3.02Z"/>
    <path d="M569.29,3.77V12.07h4.53V3.77h-4.53Z"/>
    <path d="M569.29,15.09V52.81h-7.54v4.53h8.3v-3.77h3.77V15.09h-4.53Z"/>
    <path d="M596.45,18.86v-3.77h-12.07v3.77h-3.77v23.39h3.77v3.77h12.07v-3.77h3.77v-4.53h-4.53v3.77h-10.56v-10.56h15.09v-12.07h-3.77Zm-2.26,7.54h-9.05v-6.79h10.56v6.79h-1.51Z"/>
    <path d="M620.97,18.86v-3.77h-12.07v3.77h-3.77v23.39h3.77v3.77h12.07v-3.77h3.77v-4.53h-4.53v3.77h-10.56V19.62h10.56v3.77h4.53v-4.53h-3.77Z"/>
    <path d="M639.83,15.09h-3.77V7.54h-4.53v7.54h-3.77v4.53h3.77v22.63h3.77v3.77h8.3v-4.53h-7.54V19.62h7.54v-4.53h-3.77Z"/>
    <path d="M664.35,18.86v-3.77h-12.07v3.77h-3.77v8.3h3.77v3.77h3.77v1.89h3.77v1.89h3.77v6.79h-10.56v-7.54h-4.53v8.3h3.77v3.77h12.07v-3.77h3.77v-8.3h-3.77v-3.77h-3.77v-1.89h-3.77v-1.89h-3.77v-6.79h10.56v7.54h4.53v-8.3h-3.77Z"/>
    <path d="M686.99,26.41h-12.07v4.53h15.84v-4.53h-3.77Z"/>
    <path d="M713.39,18.86v-3.77h-8.3v3.77h-3.02v-3.77h-4.53V57.34h4.53v-15.09h3.02v3.77h8.3v-3.77h3.77V18.86h-3.77Zm-3.77,22.63h-3.77v-3.77h-3.77v-14.33h3.77v-3.77h6.79v21.88h-3.02Z"/>
    <path d="M739.04,15.09v22.63h-3.77v3.77h-6.79V15.09h-4.53v27.16h3.77v3.77h8.3v-3.77h3.02v3.77h4.53V15.09h-4.53Z"/>
    <path d="M766.2,18.86v-3.77h-8.3v3.77h-3.02V0h-4.53V46.02h4.53v-3.77h3.02v3.77h8.3v-3.77h3.77V18.86h-3.77Zm-3.77,22.63h-3.77v-3.77h-3.77v-14.33h3.77v-3.77h6.79v21.88h-3.02Z"/>
    <path d="M776.77,0V46.02h4.53V0h-4.53Z"/>
    <path d="M788.08,15.09v30.93h4.53V15.09h-4.53Z"/>
    <path d="M788.08,3.77V12.07h4.53V3.77h-4.53Z"/>
    <path d="M816.75,18.86h-1.51v-3.77h-12.07v3.77h-3.77v23.39h3.77v3.77h12.07v-3.77h3.77v-4.53h-4.53v3.77h-10.56V19.62h10.56v3.77h4.53v-4.53h-2.26Z"/>
  </g>
</svg>