<?xml version="1.0" encoding="utf-8"?>
<!-- Generator: Adobe Illustrator 27.0.0, SVG Export Plug-In . SVG Version: 6.00 Build 0)  -->
<svg version="1.1" id="Capa_1" xmlns="http://www.w3.org/2000/svg" xmlns:xlink="http://www.w3.org/1999/xlink" x="0px" y="0px"
	 viewBox="0 0 1181 232" style="enable-background:new 0 0 1181 232;" xml:space="preserve">
<style type="text/css">
	.st0{fill:#FFFFFF;}
	.st1{fill:#E51D2B;}
</style>
<path class="st0" d="M133.5,59.7c40.6,0,73.5,32.9,73.5,73.5s-32.9,73.5-73.5,73.5h-45c-40.6,0-73.5-32.9-73.5-73.5
	s32.9-73.5,73.5-73.5H133.5 M133.5,53.7h-45C44.7,53.7,9,89.4,9,133.2s35.7,79.5,79.5,79.5h45c43.8,0,79.5-35.7,79.5-79.5
	S177.4,53.7,133.5,53.7L133.5,53.7z"/>
<g>
	<polygon class="st0" points="259.9,33.3 253.1,33.3 253.1,55.2 259.9,55.2 259.9,51.4 262.2,51.4 263.7,51.4 263.7,37.1 
		259.9,37.1 	"/>
	<polygon class="st0" points="445.5,40.1 454.6,40.1 456.1,40.1 456.1,33.3 445.5,33.3 	"/>
	<polygon class="st0" points="519.1,37.1 515.3,37.1 515.3,51.4 519.1,51.4 519.1,55.2 522.8,55.2 522.8,55.2 525.9,55.2 
		525.9,33.3 519.1,33.3 	"/>
	<polygon class="st0" points="562.5,55.2 570,55.2 573,55.2 573,33.3 562.5,33.3 	"/>
	<polygon class="st0" points="600.2,40.1 609.2,40.1 610.7,40.1 610.7,33.3 600.2,33.3 	"/>
	<polygon class="st0" points="720.9,37.1 717.1,37.1 717.1,51.4 720.9,51.4 720.9,55.2 724.7,55.2 724.7,55.2 727.7,55.2 
		727.7,33.3 720.9,33.3 	"/>
	<polygon class="st0" points="773.7,55.2 777.5,55.2 777.5,55.2 780.5,55.2 780.5,33.3 773.7,33.3 773.7,37.1 769.9,37.1 
		769.9,51.4 773.7,51.4 	"/>
	<path class="st0" d="M781.2,65.7h4.6h1.4h4.6h4.5h0.8h5.2h0.8h4.5h4.6h1.4h4.6h12.1h6v-3.8h3.8v-6v-4.5v-6h-6h-4.5H825v-2.3h4.6
		h4.5h6v-6v-4.5v-6h-3.8v-3.8h-6h-12.1h-4.6v-5.3v-6h-6h-4.5h-0.8V7.7h-6h-4.5h-6v6v9.1h-4.6h-5.3v-9.1v-6h-6h-4.5h-6v6v9.1h-0.8
		h-4.5h-4.6h-6H739h-4.6H733h-4.6h-5.3h-6h-4.5h-6v6v5.3h-0.8H702H690h-0.8v-1.5v-6h-3.8v-3.8h-6h-12.1h-2.7h-3.3h-2.7h-1.5v-1.5v-6
		h-6h-4.5h-6v6v1.5h-3.8v0H636h-12.1h-6v3.8h-0.4v-3.8h-6h-12.1h-4.6v-5.3v-6h-6h-4.5h-6v6v5.3h-4.6h-12.1h-6v3.8h-0.4v-3.8h-6h-8.3
		h-6v3.8h-2.3l0-3.8h-6h-5.3h-6h-3.4h-1.1h-4.9h-1.1h-0.4v-1.5v-6h-6h-4.5h-6v6v1.5H484v0h-2.7h-12.1h-6v3.8h-0.4v-3.8h-6h-12.1
		h-2.7h-3.3h-2.7h-1.5v-1.5v-6h-3.8v-1.5v-6h-6h-4.5h-6v3.8h-1.9v3.8h-1.9V19h-1.9v3.8h-1.9v3.8h-1.9v3.8h-1.9v3.8h-0.4v-1.5v-6
		h-3.8v-3.8h-6h-12.1h-2.7v0h-6h-4.5h-6v3.8H361v-3.8h-6h-1.5v0h-6h-3.8h-15.8H327h-5.2H321h-8.3h-4.6v-5.3v-6h-6h-4.5h-6v6v5.3
		h-3.4h-4.6h-6h-3.4v-9.1v-6h-6h-4.5h-6v6v9.1h-5.3h-6v3.8h-3.8v6v23.4v6h3.8v3.8h6h8.3h6h1.5h6v-3.8h0.4v3.8h6h4.5h6v-3.8h0.5v3.8
		h6h4.5h0.8h5.2h0.8h4.5h6v-6V46.8h0.8h3.4v2.3h-1.9v6v4.5v6h6h16.6v0h6h4.5h6v-3.8h0.5v3.7h6h4.5h2.7v0h6h7.1v0.8V71v6h6h4.5h6
		v-3.8h1.9v-3.8h1.9v-3.8h1.9v-3.8h1.9v-3.8h1.9v-3.8h1.9v-3.8h1.9v-3.8h0.5v9.1v6h3.8v3.8h6h8.3h2.7v0h6h12.1h6v-3.8h0.4v3.8h6
		h12.1h6v-3.8h3.8v0h0.5v3.8h6h7.2V71v6h6h4.5h6v-6v-5.3h5.3h4.6v0h6h4.5h6v-6V46.8h0.8h3.4v9.1v6h3.8v3.8h6h9.1v0.8V71v6h6h8.3h6
		v-3.8h3.8v-6v-1.5h4.6h12.1h6v-3.8h0.4v3.8h6H636h6v-3.8h2.3v3.8h6h8.3h2.7v0h6h12.1h6v-3.8h3.8v-6v-5.3h0.8h15.8h0.8V71v6h6h4.5h6
		v-6v-5.3h5.3h6v-3.8h2.3v3.8h6h8.3h6h1.6h0.8h5.2h0.8h4.5h6H781.2z M814.4,32.5h3.8v-3.8h12.1v3.8h1.5h2.3v4.5h-4.5v-3.8H819v21.9
		h10.6v-3.8h4.5v4.5h-3.8v3.8h-12.1v-3.8h-3.8V32.5z M803.1,17.5h4.5v5.3h-4.5V17.5z M803.1,31.8h4.5v28h-4.5V31.8z M791.8,13.7h4.5
		v46h-4.5V13.7z M268.2,22.8h-1.1v6v15.8v6h1.1v9.1h-4.5v-3.8h-3v3.8h-8.3v-3.8h-3.8V32.5h3.8v-3.8h8.3v3.8h3V13.7h4.5V22.8z
		 M291.6,31.8v12.9h-0.8v3.8H289v3.8h-1.9v3.8h-1.9v3.8h-4.5v-3.8h-1.9v-3.8h-1.9v-3.8H275v-3.8h-0.8V28.8h3.4v15.1h1.9v3.8h1.9v3.8
		h3v-3.8h1.9v-3.8h1.9V28.8h0h3.4V31.8z M302.2,59.7h-4.5v-9.1h1.1v-6V31.8h3.4V59.7z M302.2,22.8h-3.4h-1.1v-5.3h4.5V22.8z
		 M324.8,40.8h-4.5v-7.5h-6.8v26.4h-4.5V32.5h3.8v-3.8h8.3v3.8h0h0.8v0.8v6h3V40.8z M344.4,28.8v4.5h-0.8v3.8h-1.9v3.8h-1.9v3.8H338
		v3.8h-1.9v3.8h-1.9v3h10.2v0v4.5h-16.6v-4.5h1.9v-3.8h1.9v-3.8h1.9v-3.8h1.9v-3.8h1.9v-3.8h1.9v-3h-8.3v-0.8v-3.8h12.9h0
		L344.4,28.8L344.4,28.8z M346.3,49.2h-0.4v-2.3h0.4V49.2z M348.2,45.4h-0.4v-2.3h0.4V45.4z M356.9,55.9H355v3.8h-1.6v0v-4.5v-3.8
		h0.8v-3.8h1.5v0.7v6h1.1V55.9z M356.9,34.1h-1.1v6v0.8h-1.5v-3.8h-0.8v-3.8v-4.5h1.5v3.8h1.9V34.1z M370.9,55.9v3.8h-3.4v-3.8h-1.9
		v-1.5h1.1v-6v-0.8h1.5v3.8h1.9v3.8h0.8V55.9z M370.9,32.5v0.8h-0.8v3.8h-1.9v3.8h-1.5v-0.7v-6h-1.1v-1.6h1.9v-3.8v0h3.4V32.5z
		 M391.6,56.7h-1.9v3h-9v-3.8h-2.7v-0.8v-6h-1.1v-9.9h1.1v-6v-0.8h2.7v-3.8h12.1v3.8h3.8v4.5h-4.5v-3.8h-10.6v21.9h10.2V56.7z
		 M393.4,52.9h-1.5v-1.5h1.5V52.9z M391.9,45.4h-4.6v-2.3h4.6h4.5h0.8v2.3h-1.9v0H391.9z M402.1,63.5h-1.9v3.8h-1.9V71h-4.5v-4.5
		h1.9v-0.8h3v-3.8h3.4V63.5z M414.2,33.3v3.8h-0.8v3.8h-1.9v3.8h-1.9v3.8h-1.9v3.8h-1.9v3.8H404v3.8h-1.5v-3.8v-4.5v0h0.8v-3.8h1.9
		v-3.8h1.9v-3.8h1.9v-3.8h1.9v-3.8h1.9v-3.8h1.6V33.3z M418,22.8h-1.5v-1.5h1.5V22.8z M420.2,15.2v-1.5h4.5v1.5H424H420.2z
		 M435,49.2h-0.5v-9.9h0.5V49.2z M435,32.5v0.8h-6.5v21.9h6.5v0.8v3.8h-7.2v-3.8H424V35.5h1.1v-3.8h1.9V28h1.5v0.8h3.8h2.7V32.5z
		 M459.5,40.8v0.8h0v3h-14v10.6h10.6v-3.8h3.4v4.5h-2.7v3.8h-12.1v-3.8h-2.7v-0.8v-6H441v-9.9h1.1v-6v-0.8h2.7v-3.8h12.1v3.8h2.7
		V40.8z M485.1,40.8h-4.5v-7.5H470v6.8h3.8V42h3.8v1.9h3.8v3.8h3.8v8.3h-3.8v3.8h-12.1v-3.8h-2.7v0v-4.5v-0.8v-3h3.4v7.5h10.6v-6.8
		h-3.8v-1.9H473v-1.9h-3.8v-3.8h-2.7v-8.3h2.7v-3.8h12.1v3.8h2.7v0.8v6h1.1V40.8z M504.8,49.2h-0.4v-9.9h0.4V49.2z M504.8,33.3h-6.4
		v21.9h6.4v4.5h-7.2v-3.8h-3.8V33.3h-2.7v-0.8v-3.8h2.7v-7.5h4.5v7.5h3.8h2.7V33.3z M530.4,55.9h-3.8v3.8h-8.3v-3.8h-3V71h-4.5v-5.3
		h1.1v-6v-4.5v-6h-1.1v-9.9h1.1v-6v-4.5h3.4v3.8h3v-3.8h8.3v3.8h0h3.8V55.9z M551.9,40.8h-3.4v-7.5h-6.8v26.4h-4.5V32.5h3.8v-3.8
		h8.3v3.8h0h2.7V40.8z M573.8,55.9v3.8h-12.1v-3.8h-3.8v-9.1h1.1v-6v-8.3h2.7v-3.8h12.1v3.8h3.8v23.4H573.8z M588.9,67.3h-3.8V71
		h-8.3v-4.5h7.5V31.8h4.5V67.3z M588.9,22.8h-4.5v-5.3h4.5V22.8z M614.2,44.6h-14v10.6h10.6v-3.8h3.4v4.5h-2.7v3.8h-12.1v-3.8h-3.8
		V32.5h3.8v-3.8h12.1v3.8h2.7V44.6z M639.8,55.9H636v3.8h-12.1v-3.8h-2.7v-4.5v-0.8v-6V32.5h2.7v-3.8H636v3.8h0.8v0.8v3.8h-1.5v-3.8
		h-10.6v21.9h10.6v-3.8h4.5V55.9z M640.6,45.4h-0.8h-4.5h-4.6v-2.3h4.6h4.5h0.8V45.4z M657.5,40.8v0.8h0v6v1.5h-0.4v-9.9h0.4V40.8z
		 M657.5,32.5v0.8h-6.4v21.9h6.4v0.8v3.8h-7.2v-3.8h-3.8V33.3h-0.8v-0.8v-3.8h0.8v-7.5h4.5v7.5h3.8h0h2.7V32.5z M683.2,40.8h-4.5
		v-7.5h-10.6v6.8h3.8V42h3.8v1.9h3.8v3.8h3.8v8.3h-3.8v3.8h-12.1v-3.8h-2.7v-0.8v-6h-1.1v-1.5h4.5v7.5h10.6v-6.8h-3.8v-1.9h-3.8
		v-1.9h-3.8v-3.8h-3.8v-1.5h1.1v-6v-0.8h2.7v-3.8h12.1v3.8h3.8V40.8z M705.8,44.6H690v-4.5H702h3.8V44.6z M732.2,55.9h-3.8v3.8h-8.3
		v-3.8h-3V71h-4.5V28.8h4.5v3.8h3v-3.8h8.3v3.8h3.8V55.9z M758.6,59.7h-4.5v-3.8h-3v3.8h-8.3v-3.8H739V28.8h4.5v26.4h6.8v-3.8h3.8
		V28.8h4.5V59.7z M769.9,55.9v3.8h-4.5v-46h4.5v18.9h3v-3.8h8.3v3.8h3.8v23.4h-3.8v3.8h-8.3v-3.8H769.9z"/>
	<path class="st0" d="M272.5,116.2h-7.3v9.1h-9.1V178h25.5v-52.8h-9.1V116.2z M275.6,131.3V172h-13.5v-40.8h3.1h1.3h6H275.6z"/>
	<path class="st0" d="M289.4,117.4v-3.1v-6h-6h-3.1v-3.1v-6h-6h-3.1v-3.1v-1.3h21.3h6v-6V77.9v-6h-6h-9.1h-29.1h-6v6V81h-3.1h-6v6
		V98v6h6h3.1v3.1v6v1.3v3.1h-3.1h-6v6v56.4v6h6h3.1v3.1v6h6h29.1h6v-6v-3.1h3.1h6v-6v-56.4v-6h-6H289.4z M292.5,179.9h-9.1v9.1
		h-29.1v-9.1h-9.1v-56.4h9.1v-9.1h9.1v-7.3h-9.1V98h-9.1V87h9.1v-9.1h29.1h9.1v10.9h-36.4v7.3h9.1v9.1h9.1v9.1h9.1v9.1h9.1V179.9z"
		/>
	<path class="st0" d="M336.2,125.3h-16.4V178h16.4v-9.1h5.5h3.6v-34.6h-9.1V125.3z M339.3,140.4v22.6h-3.1h-6v6v3.1h-4.4v-40.8h4.4
		v3.1v6h6H339.3z"/>
	<path class="st0" d="M416.8,117.4v-3.1v-6h-6h-20h-1.3h-6h-10.9h-6v6V172h-4.4v-57.7v-6h-6h-10.9H344h-6h-20h-6v6v3.1h-3.1h-6v6
		v56.4v6h6h3.1v3.1v6h6h20h6h5.8h10.9h6v0h5.8h10.9h6v-6v-48.6h3.1h6v-6v-3.1h4.4v57.7v6h6h10.9h6v-6v-65.5v-6h-6H416.8z M360.8,189
		h-10.9v-9.1H338v9.1h-20v-9.1h-9.1v-56.4h9.1v-9.1h20v9.1h7.3v-9.1h10.9v60.1v3.6h4.5V189z M419.9,188.9H409v-63.7h-16.4v9.1h-9.1
		v54.6h-10.9v-74.6h10.9v9.1h7.3v-9.1h20v9.1h9.1V188.9z"/>
	<path class="st0" d="M526,117.4v-3.1v-6h-6h-29.1h-6v6v3.1h-3.1h-5.8v-1.3V87v-6h-6H459h-5.8H453h-5.8h-5.5H438h-1.2h-0.3
		c-3.8,0-6.1,3.1-6.1,6v20v1.3v4.7v1.3v74.6v6h6h10.9h6v-6v-66.8h5.8h10.9h5.8v1.3v20v6h6h3.1v3.1v1.3h-3.1h-6v6v20v6h6h3.1v3.1v6h6
		H520h6v-6v-3.1h3.1h6v-6v-20v-6h-6H526v-3.1v-1.3h3.1h6v-6v-20v-6h-6H526z M447.2,188.9h-10.9v-74.6h10.9V188.9z M447.2,107.1
		h-10.9V87h10.9V107.1z M469.9,116.2H459V87h10.9V116.2z M529.1,143.5h-10.9v-18.2h-25.5v16.4h9.1v4.5h9.1v4.5h9.1v9.1h9.1v20H520
		v9.1h-29.1v-9.1h-9.1v-20h10.9V178h25.5v-16.4h-9.1v-4.5H500v-4.6h-9.1v-9.1h-9.1v-20h9.1v-9.1H520v9.1h9.1V143.5z M501.8,135.6
		h-3.1v-4.4h13.5v8.9h-1.3h-3.1v-4.5H501.8z M509.1,167.7h3.1v4.4h-13.5v-8.9h1.3h3.1v4.5H509.1z"/>
	<path class="st0" d="M617,117.4v-3.1v-6h-6h-20h-1.3h-6h-10.9h-6v6v101.9v6h6h10.9h6v-6v-21.3h1.3h20h6v-6v-3.1h3.1h6v-6v-56.4v-6
		h-6H617z M620.1,179.8H611v9.1h-20v-9.1h-7.3v36.4h-10.9V114.3h10.9v9.1h7.3v-9.1h20v9.1h9.1V179.8z"/>
	<path class="st0" d="M592.8,134.4h-9.1v34.6h9.1v9.1h9.1h7.3v-52.8h-16.4V134.4z M598.8,134.4v-3.1h4.4V172h-1.3h-3.1v-3.1v-6h-6
		h-3.1v-22.6h3.1h6V134.4z"/>
	<path class="st0" d="M697.4,178h18.2h0h7.3v-52.8h-25.5V178z M703.4,131.3h13.5V172h-1.3h-12.2V131.3z"/>
	<path class="st0" d="M730.7,189v-3.1h3.1h6v-6v-56.4v-6h-6h-3.1v-3.1v-6h-6h-29.1h-6v6v3.1h-3.1h-5.8h-0.2h-5.8h-3.1v-3.1v-6h-6
		h-20h-6v6v3.1h-3.1h-6v6V189v6h6h10.9h6v-6v-57.7h4.4v12.2v6h6h10.9h5.8v30.4v6h6h3.1v3.1v6h6h29.1h6V189z M674.7,143.5h-10.9
		v-18.2h-16.4V189h-10.9v-65.5h9.1v-9.1h20v9.1h9.1V143.5z M724.7,189h-29.1v-9.1h-9.1v-56.4h9.1v-9.1h29.1v9.1h9.1v56.4h-9.1V189z"
		/>
	<path class="st0" d="M755.7,81h-3.8h-1.2h-0.3c-3.8,0-6.1,3.1-6.1,6v20v1.3v4.7v1.3v85H732h-6v6v10.9v6h6h20h6v-6v-3.1h3.1h6v-6
		v-92.8v-1.3v-4.7v-1.3V87v-6h-6H755.7z M761.1,207.1H752v9.1h-20v-10.9h18.2v-91h10.9V207.1z M761.1,107.1h-10.9V87h10.9V107.1z"/>
	<path class="st0" d="M810.3,141.6h3.6v-16.4h-25.5v16.4H810.3L810.3,141.6z M807.9,135.6h-13.5v-4.4h13.5V135.6z"/>
	<path class="st0" d="M920.4,108.3h-3.1V96.1v-6h-6h-10.9h-6v6v12.2h-3.1h-6v6v3.1H884h-3.1v-3.1v-6h-6h-29.1h-6v6v3.1h-3.1h-5.8
		h-0.2h-5.8h-3.1v-3.1v-6h-6h-29.1h-6v6v3.1h-3.1h-6v6v56.4v6h6h3.1v3.1v6h6h29.1h6v-6v-3.1h3.1h5.8h0.2h5.8h3.1v3.1v6h6h29.1h6v-6
		v-3.1h3.1h6v-6v-10.9v-6h-6H873h-6v6v3.1h-13.5v-40.8H867v3.1v6h6H884h6v-6v-3.1h1.3h3.1v48.6v6h6h3.1v3.1v6h6h20h6v-6V178v-6h-6
		h-12.2v-40.8h12.2h6v-6v-10.9v-6h-6H920.4z M824.8,179.9h-9.1v9.1h-29.1v-9.1h-9.1v-56.4h9.1v-9.1h29.1v9.1h0h9.1v29.1h-36.4V178
		h25.5v-9.1h10.9V179.9z M830.6,162.9h-5.8h-10.9h-6v6v3.1h-13.5v-13.5h30.4h5.8V162.9z M884,134.4H873v-9.1h-25.5V178H873v-9.1H884
		v10.9h-9.1v9.1h-29.1v-9.1h-9.1v-56.4h9.1v-9.1h29.1v9.1h9.1V134.4z M929.5,125.3h-18.2V178h18.2V189h-20v-9.1h-9.1v-54.6h-9.1
		v-10.9h9.1V96.1h10.9v18.2h9.1h0h9.1V125.3z"/>
	<path class="st0" d="M1017.3,81v-3.1v-6h-6h-29.1h-6v6V81h-3.1h-6v6v21.3H964h-6v6v10.9v6h6h3.1V189v6h6H984h6v-6v-57.7h12.2h1.3
		v57.7v6h6h10.9h6v-6v-74.6v-1.3v-4.7v-1.3V87v-6h-6H1017.3z M1003.5,107.1v1.3h-1.3H990V94.9h13.5V107.1z M1020.4,188.9h-10.9
		v-74.6h10.9V188.9z M1020.4,107.1h-10.9V88.9H984v25.5h18.2v10.9H984V189h-10.9v-63.7H964v-10.9h9.1V87h9.1v-9.1h29.1V87h9.1V107.1
		z"/>
	<path class="st0" d="M1036.8,71.9h-6v6v111v6h6h10.9h6v-6v-111v-6h-6H1036.8z M1047.7,188.9h-10.9v-111l0,0h10.9V188.9z"/>
	<path class="st0" d="M1100.5,141.6v-16.4H1075v16.4h21.8H1100.5z M1094.5,135.6H1081v-4.4h13.5V135.6z"/>
	<path class="st0" d="M1170.6,117.4h-3.1v-3.1v-6h-6h-29.1h-6v6v3.1h-3.1h-5.8h-0.2h-5.8h-3.1v-3.1v-6h-6h-29.1h-6v6v3.1h-3.1h-6v6
		v56.4v6h6h3.1v3.1v6h6h29.1h6v-6v-3.1h3.1h5.8v0h6h3.1v3.1v6h6h29.1h6v-6v-3.1h3.1h6v-6v-20v-6h-6h-3.1v-3.1v-1.3h3.1h6v-6v-20v-6
		H1170.6z M1111.4,179.9h-9.1v9.1h-29.1v-9.1h-9.1v-56.4h9.1v-9.1h29.1v9.1h9.1v29.1H1075V178h25.5v-9.1h10.9V179.9z M1117.3,159.8
		v3.1h-5.8h-10.9h-6v6v3.1H1081v-13.5h30.4h5.8V159.8z M1117.4,153.8v-1.3v-3.1h5.8h3.1v3.1v1.3h-3.1H1117.4z M1170.6,143.5h-10.9
		v-18.2h-25.5v16.4h9.1v4.5h9.1v4.5h9.1v9.1h9.1v20h-9.1v9.1h-29.1v-9.1h-9.1v-20h10.9V178h25.5v-16.4h-9.1v-4.5h-9.1v-4.6h-9.1
		v-9.1h-9.1v-20h9.1v-9.1h29.1v9.1h3.6h5.5V143.5z M1143.3,135.6h-3.1v-4.4h13.5v8.9h-1.3h-3.1v-4.5H1143.3z M1150.6,167.7h3.1v4.4
		h-13.5v-8.9h1.3h3.1v4.5H1150.6z"/>
</g>
<g>
	<path d="M283.4,77.9h-29.1V87h-9.1V98h9.1v9.1h9.1v7.3h-9.1v9.1h-9.1v56.4h9.1v9.1h29.1v-9.1h9.1v-56.4h-9.1v-9.1h-9.1v-9.1h-9.1
		v-9.1h-9.1v-7.3h36.4V77.9L283.4,77.9L283.4,77.9z M272.5,116.2v9.1h9.1V178h-25.5v-52.8h9.1v-9.1L272.5,116.2L272.5,116.2z"/>
	<path d="M356.2,174.4v-60.1h-10.9v9.1H338v-9.1h-20v9.1h-9.1v56.4h9.1v9.1h20v-9.1h11.8v9.1h10.9V178h-4.5V174.4L356.2,174.4z
		 M341.6,168.9h-5.5v9.1h-16.4v-52.8h16.4v9.1h9.1v34.6H341.6z"/>
	<path d="M410.8,123.4v-9.1h-20v9.1h-7.3v-9.1h-10.9v74.6h10.9v-54.6h9.1v-9.1H409v63.7h10.9v-65.5H410.8L410.8,123.4z"/>
	<path d="M436.3,114.3v74.6h10.9v-74.6H436.3z"/>
	<path d="M436.3,87v20h10.9V87C447.2,87,436.3,87,436.3,87z"/>
	<path d="M459,87v29.1h10.9V87H459z"/>
	<path d="M520,123.4v-9.1h-29.1v9.1h-9.1v20h9.1v9.1h9.1v4.6h9.1v4.6h9.1V178h-25.5v-18.2h-10.9v20h9.1v9.1H520v-9.1h9.1v-20H520
		v-9.1h-9.1v-4.6h-9.1v-4.6h-9.1v-16.4h25.5v18.2h10.9v-20L520,123.4L520,123.4z"/>
	<path d="M611,123.4v-9.1h-20v9.1h-7.3v-9.1h-10.9v101.9h10.9v-36.4h7.3v9.1h20v-9.1h9.1v-56.4L611,123.4L611,123.4z M601.9,178
		h-9.1v-9.1h-9.1v-34.6h9.1v-9.1h16.4V178H601.9z"/>
	<path d="M665.6,123.4v-9.1h-20v9.1h-9.1V189h10.9v-63.7h16.4v18.2h10.9v-20L665.6,123.4L665.6,123.4z"/>
	<path d="M733.8,179.9v-56.4h-9.1v-9.1h-29.1v9.1h-9.1v56.4h9.1v9.1h29.1v-9.1H733.8z M715.6,178h-18.2v-52.8h25.5V178H715.6
		L715.6,178z"/>
	<path d="M750.2,87v20h10.9V87C761.1,87,750.2,87,750.2,87z"/>
	<path d="M750.2,114.3v91H732v10.9h20v-9.1h9.1v-92.8H750.2z"/>
	<path d="M815.7,123.4v-9.1h-29.1v9.1h-9.1v56.4h9.1v9.1h29.1v-9.1h9.1v-10.9h-10.9v9.1h-25.5v-25.5h36.4v-29.1L815.7,123.4
		L815.7,123.4z M810.3,141.6h-21.8v-16.4h25.5v16.4H810.3L810.3,141.6z"/>
	<path d="M874.9,123.4v-9.1h-29.1v9.1h-9.1v56.4h9.1v9.1h29.1v-9.1h9.1v-10.9H873v9.1h-25.5v-52.8H873v9.1H884v-10.9
		C884,123.4,874.9,123.4,874.9,123.4z"/>
	<path d="M920.4,114.3h-9.1V96.1h-10.9v18.2h-9.1v10.9h9.1v54.6h9.1v9.1h20V178h-18.2v-52.8h18.2v-10.9L920.4,114.3L920.4,114.3z"/>
	<path d="M1011.3,87v-9.1h-29.1V87h-9.1v27.3H964v10.9h9.1V189H984v-63.7h18.2v-10.9H984V88.9h25.5v18.2h10.9V87
		C1020.4,87,1011.3,87,1011.3,87z"/>
	<path d="M1009.5,114.3v74.6h10.9v-74.6H1009.5z"/>
	<path d="M1036.8,77.9v111h10.9v-111H1036.8L1036.8,77.9z"/>
	<path d="M1102.3,123.4v-9.1h-29.1v9.1h-9.1v56.4h9.1v9.1h29.1v-9.1h9.1v-10.9h-10.9v9.1H1075v-25.5h36.4v-29.1
		C1111.4,123.4,1102.3,123.4,1102.3,123.4z M1096.9,141.6H1075v-16.4h25.5v16.4H1096.9z"/>
	<path d="M1165.1,123.4h-3.6v-9.1h-29.1v9.1h-9.1v20h9.1v9.1h9.1v4.6h9.1v4.6h9.1V178h-25.5v-18.2h-10.9v20h9.1v9.1h29.1v-9.1h9.1
		v-20h-9.1v-9.1h-9.1v-4.6h-9.1v-4.6h-9.1v-16.4h25.5v18.2h10.9v-20L1165.1,123.4L1165.1,123.4z"/>
</g>
<path class="st1" d="M88.5,59.7h45c40.6,0,73.5,32.9,73.5,73.5l0,0c0,40.6-32.9,73.5-73.5,73.5h-45c-40.6,0-73.5-32.9-73.5-73.5l0,0
	C15,92.6,47.9,59.7,88.5,59.7z"/>
<path class="st0" d="M122.3,78.7H94.5v8.7h-8.7v10.4h8.7v8.7h8.7v6.9h-8.7v8.7h-8.7v53.9h8.7v8.7h27.8v-8.7h8.7v-53.9h-8.7v-8.7
	h-8.7v-8.7H105v-8.7h-8.7v-6.9H131V78.7L122.3,78.7L122.3,78.7z M111.9,115.2v8.7h8.7v50.4H96.3v-50.4h8.7v-8.7H111.9L111.9,115.2z"
	/>
<g>
	<path d="M263.7,13.7v18.9h-3v-3.8h-8.3v3.8h-3.8v23.4h3.8v3.8h8.3v-3.8h3v3.8h4.5v-46H263.7z M262.2,51.4h-2.3v3.8h-6.8V33.3h6.8
		v3.8h3.8v14.3H262.2L262.2,51.4z"/>
	<path d="M288.2,28.8v15.1h-1.9v3.8h-1.9v3.8h-3v-3.8h-1.9v-3.8h-1.9V28.8h-4.5v15.8h1.9v3.8h1.9v3.8h1.9v3.8h1.9v3.8h4.5v-3.8h1.9
		v-3.8h1.9v-3.8h1.9v-3.8h1.9V28.8H288.2L288.2,28.8z"/>
	<path d="M297.6,17.5v8.3h4.5v-8.3H297.6z"/>
	<path d="M297.6,28.8v30.9h4.5V28.8H297.6z"/>
	<path d="M321,32.5v-3.8h-8.3v3.8h-3.8v27.2h4.5V33.3h6.8v7.5h4.5v-8.3H321L321,32.5z"/>
	<path d="M343.7,28.8h-15.8v4.5h11.3v3h-1.9v3.8h-1.9v3.8h-1.9v3.8h-1.9v3.8h-1.9v3.8h-1.9v4.5h19.6v-4.5h-13.2v-3h1.9v-3.8h1.9
		v-3.8h1.9v-3.8h1.9v-3.8h1.9v-3.8h3.8v-4.5L343.7,28.8L343.7,28.8z"/>
	<path d="M358.7,38.6v-2.3h-1.9v-3.8H355v-3.8h-4.5v4.5h1.9v3.8h1.9v3.8h1.9v6.8h-1.9v3.8h-1.9v3.8h-1.9v4.5h4.5v-3.8h1.9v-3.8h1.9
		v-3.8h1.9v-8.3h-1.9V38.6L358.7,38.6z"/>
	<path d="M367.4,28.8v3.8h-1.9v3.8h-1.9v3.8h-1.9v8.3h1.9v3.8h1.9v3.8h1.9v3.8h4.5v-4.5h-1.9v-3.8h-1.9v-3.8h-1.9v-6.8h1.9v-3.8h1.9
		v-3.8h1.9v-4.5L367.4,28.8L367.4,28.8z"/>
	<path d="M394.2,55.9h2.3v-4.5h-4.5v3.8h-10.6V33.3h10.6v3.8h4.5v-4.5h-3.8v-3.8h-12.1v3.8h-3.8v23.4h3.8v3.8h12.1v-3.8H394.2
		L394.2,55.9z"/>
	<path d="M421,25.8V22h1.9v-3.8h1.9v-4.5h-4.5v3.8h-1.9v3.8h-1.9V25h-1.9v3.8h-1.9v3.8h-1.9v3.8h-1.9v3.8H407v3.8h-1.9v3.8h-1.9v3.8
		h-1.9v3.8h-1.9v3.8h-1.9v3.8h-1.9v3.8h-1.9V71h4.5v-3.8h1.9v-3.8h1.9v-3.8h1.9v-3.8h1.9v-3.8h1.9v-3.8h1.9v-3.8h1.9v-3.8h1.9v-3.8
		h1.9v-3.8h1.9v-3.8h1.9v-3.8C419.1,25.8,421,25.8,421,25.8z"/>
	<path d="M432.3,28.8h-3.8v-7.6H424v7.5h-3.8v4.5h3.8v22.6h3.8v3.8h8.3v-4.5h-7.5V33.3h7.5v-4.5H432.3z"/>
	<path d="M456.8,32.5v-3.8h-12.1v3.8H441v23.4h3.8v3.8h12.1v-3.8h3.8v-4.5h-4.5v3.8h-10.6V44.6h15.1V32.5H456.8z M454.6,40.1h-9
		v-6.8h10.6v6.8H454.6z"/>
	<path d="M481.3,32.5v-3.8h-12.1v3.8h-3.8v8.3h3.8v3.8h3.8v1.9h3.8v1.9h3.8v6.8H470v-7.5h-4.5v8.3h3.8v3.8h12.1v-3.8h3.8v-8.3h-3.8
		v-3.8h-3.8V42h-3.8v-1.9H470v-6.8h10.6v7.5h4.5v-8.3H481.3z"/>
	<path d="M502.1,28.8h-3.8v-7.6h-4.5v7.5H490v4.5h3.8v22.6h3.8v3.8h8.3v-4.5h-7.5V33.3h7.5v-4.5H502.1z"/>
	<path d="M526.6,32.5v-3.8h-8.3v3.8h-3v-3.8h-4.5V71h4.5V55.9h3v3.8h8.3v-3.8h3.8V32.5H526.6L526.6,32.5z M522.8,55.2h-3.8v-3.8
		h-3.8V37.1h3.8v-3.8h6.8v21.9L522.8,55.2L522.8,55.2z"/>
	<path d="M549.2,32.5v-3.8h-8.3v3.8h-3.8v27.2h4.5V33.3h6.8v7.5h4.5v-8.3H549.2L549.2,32.5z"/>
	<path d="M577.5,55.9V32.5h-3.8v-3.8h-12.1v3.8h-3.8v23.4h3.8v3.8h12.1v-3.8H577.5z M570,55.2h-7.5V33.3H573v21.9H570z"/>
	<path d="M584.3,17.5v8.3h4.5v-8.3H584.3z"/>
	<path d="M584.3,28.8v37.7h-7.5V71h8.3v-3.8h3.8V28.8H584.3z"/>
	<path d="M611.5,32.5v-3.8h-12.1v3.8h-3.8v23.4h3.8v3.8h12.1v-3.8h3.8v-4.5h-4.5v3.8h-10.6V44.6h15.1V32.5H611.5z M609.2,40.1h-9
		v-6.8h10.6v6.8H609.2z"/>
	<path d="M636,32.5v-3.8h-12.1v3.8h-3.8v23.4h3.8v3.8H636v-3.8h3.8v-4.5h-4.5v3.8h-10.6V33.3h10.6v3.8h4.5v-4.5H636z"/>
	<path d="M654.9,28.8h-3.8v-7.6h-4.5v7.5h-3.8v4.5h3.8v22.6h3.8v3.8h8.3v-4.5h-7.5V33.3h7.5v-4.5H654.9L654.9,28.8z"/>
	<path d="M679.4,32.5v-3.8h-12.1v3.8h-3.8v8.3h3.8v3.8h3.8v1.9h3.8v1.9h3.8v6.8h-10.6v-7.5h-4.5v8.3h3.8v3.8h12.1v-3.8h3.8v-8.3
		h-3.8v-3.8h-3.8V42h-3.8v-1.9h-3.8v-6.8h10.6v7.5h4.5v-8.3H679.4z"/>
	<path d="M702,40.1H690v4.5h15.8v-4.5H702z"/>
	<path d="M728.4,32.5v-3.8h-8.3v3.8h-3v-3.8h-4.5V71h4.5V55.9h3v3.8h8.3v-3.8h3.8V32.5H728.4z M724.7,55.2h-3.8v-3.8h-3.8V37.1h3.8
		v-3.8h6.8v21.9L724.7,55.2L724.7,55.2z"/>
	<path d="M754.1,28.8v22.6h-3.8v3.8h-6.8V28.8H739v27.2h3.8v3.8h8.3v-3.8h3v3.8h4.5V28.8H754.1z"/>
	<path d="M781.2,32.5v-3.8h-8.3v3.8h-3V13.7h-4.5v46h4.5v-3.8h3v3.8h8.3v-3.8h3.8V32.5H781.2z M777.5,55.2h-3.8v-3.8h-3.8V37.1h3.8
		v-3.8h6.8v21.9L777.5,55.2L777.5,55.2z"/>
	<path d="M791.8,13.7v46h4.5v-46H791.8z"/>
	<path d="M803.1,28.8v30.9h4.5V28.8H803.1z"/>
	<path d="M803.1,17.5v8.3h4.5v-8.3H803.1z"/>
	<path d="M831.8,32.5h-1.5v-3.8h-12.1v3.8h-3.8v23.4h3.8v3.8h12.1v-3.8h3.8v-4.5h-4.5v3.8H819V33.3h10.6v3.8h4.5v-4.5H831.8z"/>
</g>
</svg>
