<?xml version="1.0" encoding="utf-8"?>
<!-- Generator: Adobe Illustrator 27.0.0, SVG Export Plug-In . SVG Version: 6.00 Build 0)  -->
<svg version="1.1" id="Capa_1" xmlns="http://www.w3.org/2000/svg" xmlns:xlink="http://www.w3.org/1999/xlink" x="0px" y="0px"
	 viewBox="0 0 1181 232" style="enable-background:new 0 0 1181 232;" xml:space="preserve">
<style type="text/css">
	.st0{fill:#FFFFFF;}
	.st1{fill:#E51D2B;}
</style>
<path class="st0" d="M133.5,59.7c40.6,0,73.5,32.9,73.5,73.5s-32.9,73.5-73.5,73.5h-45c-40.6,0-73.5-32.9-73.5-73.5
	s32.9-73.5,73.5-73.5H133.5 M133.5,47.7h-45C41.4,47.7,3,86.1,3,133.2s38.4,85.5,85.5,85.5h45c47.1,0,85.5-38.4,85.5-85.5
	S180.7,47.7,133.5,47.7L133.5,47.7z"/>
<g>
	<path class="st0" d="M285.5,77.9v10.9h-36.4v7.3h9.1v9.1h9.1v9.1h9.1v9.1h9.1v56.4h-9.1v9.1h-29.1v-9.1h-9.1v-56.4h9.1v-9.1h9.1
		v-7.3h-9.1V98h-9.1V87h9.1v-9.1h29.1H285.5 M249.1,178h25.5v-52.8h-9.1v-9.1h-7.3v9.1h-9.1V178 M276.4,77.9L276.4,77.9L276.4,77.9
		 M299.5,63.9h-14h-9.1h-29.1h-14V73h-9.1v14V98v14v11.5v56.4v14h9.1v9.1h14h29.1h14v-9.1h9.1v-14v-56.4v-14h-9.1v-6.6h9.1v-14V77.9
		V63.9L299.5,63.9z"/>
	<path class="st0" d="M349.2,114.3v60.1v3.6h4.5V189h-10.9v-9.1H331v9.1h-20v-9.1h-9.1v-56.4h9.1v-9.1h20v9.1h7.3v-9.1H349.2
		 M312.8,178h16.4v-9.1h5.5h3.6v-34.6h-9.1v-9.1h-16.4V178 M363.2,100.3h-14H345h-14h-20h-14v9.1h-9.1v14v56.4v14h9.1v9.1h14h20h14
		h8.8h14v-14V178v-14h-4.5v-49.7V100.3L363.2,100.3z"/>
	<path class="st0" d="M403.8,114.3v9.1h0h9.1v65.5H402v-63.7h-16.4v9.1h-9.1v54.6h-10.9v-74.6h10.9v9.1h7.3v-9.1H403.8 M417.8,100.3
		h-14h-13.3h-14h-10.9h-14v14v74.6v14h14h10.9h14H402h10.9h14v-14v-65.5v-14h-9.1L417.8,100.3L417.8,100.3z"/>
	<path class="st0" d="M440.2,114.3v74.6h-10.9v-74.6H440.2 M454.2,100.3h-14h-10.9h-14v14v74.6v14h14h10.9h14v-14v-74.6V100.3
		L454.2,100.3z"/>
	<path class="st0" d="M440.2,87v20h-10.9V87H440.2 M454.2,73h-14h-10.9h-14v14v20v14h14h10.9h14v-14V87V73L454.2,73z"/>
	<path class="st0" d="M462.9,87v29.1H452V87H462.9 M476.9,73h-14H452h-14v14v29.1v14h14h10.9h14v-14V87V73L476.9,73z"/>
	<path class="st0" d="M513,114.3v9.1h9.1v20h-10.9v-18.2h-25.5v16.4h9.1v4.6h9.1v4.5h9.1v9.1h9.1v20H513v9.1h-29.1v-9.1h-9.1v-20
		h10.9V178h25.5v-16.4h-9.1v-4.5H493v-4.6h-9.1v-9.1h-9.1v-20h9.1v-9.1H513 M527,100.3h-14h-29.1h-14v9.1h-9.1v14v20v14v2.4v20v14
		h9.1v9.1h14H513h14v-9.1h9.1v-14v-20v-2.4v-14v-20v-14H527V100.3L527,100.3z"/>
	<path class="st0" d="M604,114.3v9.1v0v0h9.1v56.4H604v9.1h-20v-9.1h-7.3v36.4h-10.9V114.3h10.9v9.1h7.3v-9.1H604 M576.7,168.9h9.1
		v9.1h9.1h7.3v-52.8h-16.4v9.1h-9.1V168.9 M618,100.3h-14h-13.3h-14h-10.9h-14v14v101.9v14h14h10.9h14v-14v-13.3H604h14v-9.1h9.1
		v-14v-56.4v-14H618V100.3L618,100.3z"/>
	<path class="st0" d="M658.6,114.3v9.1h9.1v20h-10.9v-18.2h-16.4V189h-10.9v-65.5h9.1v-9.1H658.6 M672.6,100.3h-14h-20h-14v9.1h-9.1
		v14V189v14h14h10.9h14v-14v-31.5h2.4h10.9h14v-14v-20v-14h-9.1V100.3L672.6,100.3z"/>
	<path class="st0" d="M717.7,114.3v9.1h9.1v56.4h-9.1v9.1h-29.1v-9.1h-9.1v-56.4h9.1v-9.1H717.7 M690.4,178h18.2h7.3v-52.8h-25.5
		V178 M708.6,178L708.6,178L708.6,178 M731.7,100.3h-14h-29.1h-14v9.1h-9.1v14v56.4v14h9.1v9.1h14h29.1h14v-9.1h9.1v-14v-56.4v-14
		h-9.1V100.3L731.7,100.3z"/>
	<path class="st0" d="M754.1,87v20h-10.9V87H754.1 M768.1,73h-14h-10.9h-14v14v20v14h14h10.9h14v-14V87V73L768.1,73z"/>
	<path class="st0" d="M754.1,114.3v92.8H745v9.1h-20v-10.9h18.2v-91H754.1 M768.1,100.3h-14h-10.9h-14v14v77H725h-14v14v10.9v14h14
		h20h14v-9.1h9.1v-14v-92.8V100.3L768.1,100.3z"/>
	<path class="st0" d="M808.7,114.3v9.1h0h9.1v29.1h-36.4V178h25.5v-9.1h10.9v10.9h-9.1v9.1h-29.1v-9.1h-9.1v-56.4h9.1v-9.1H808.7
		 M781.4,141.6h21.8h3.6v-16.4h-25.5V141.6 M803.3,141.6L803.3,141.6L803.3,141.6 M822.7,100.3h-14h-29.1h-14v9.1h-9.1v14v56.4v14
		h9.1v9.1h14h29.1h14v-9.1h9.1v-14v-10.9v-2.4h0v-14v-29.1v-14h-9.1L822.7,100.3L822.7,100.3z"/>
	<path class="st0" d="M867.9,114.3v9.1h9.1v10.9H866v-9.1h-25.5V178H866v-9.1H877v10.9h-9.1v9.1h-29.1v-9.1h-9.1v-56.4h9.1v-9.1
		H867.9 M881.9,100.3h-14h-29.1h-14v9.1h-9.1v14v56.4v14h9.1v9.1h14h29.1h14v-9.1h9.1v-14v-10.9v-14h-14H866h-11.5v-6.6H866H877h14
		v-14v-10.9v-14h-9.1V100.3L881.9,100.3z"/>
	<path class="st0" d="M904.3,96.1v18.2h9.1h0h9.1v10.9h-18.2V178h18.2V189h-20v-9.1h-9.1v-54.6h-9.1v-10.9h9.1V96.1H904.3
		 M918.3,82.1h-14h-10.9h-14v14v4.2h-9.1v14v10.9v14h9.1v40.6v14h9.1v9.1h14h20h14v-14V178v-14h-14h-4.2v-24.8h4.2h14v-14v-10.9v-14
		h-14h-4.2v-4.2V82.1L918.3,82.1z"/>
	<path class="st0" d="M1004.3,77.9V87h9.1v20h-10.9V88.9H977v25.5h18.2v10.9H977V189h-10.9v-63.7H957v-10.9h9.1V87h9.1v-9.1H1004.3
		 M1018.3,63.9h-14h-29.1h-14V73h-9.1v14v13.3H943v14v10.9v14h9.1V189v14h14H977h14v-14v-49.7h4.2h14v-14v-4.2h4.2h14v-14V87V73
		h-9.1V63.9L1018.3,63.9z"/>
	<path class="st0" d="M1013.4,114.3v74.6h-10.9v-74.6H1013.4 M1027.4,100.3h-14h-10.9h-14v14v74.6v14h14h10.9h14v-14v-74.6V100.3
		L1027.4,100.3z"/>
	<path class="st0" d="M1040.7,77.9v111h-10.9v-111l0,0H1040.7 M1054.7,63.9h-14h-10.9h-14v14l0,111v14h14h10.9h14v-14v-111V63.9
		L1054.7,63.9z"/>
	<path class="st0" d="M1095.3,114.3v9.1h9.1v29.1H1068V178h25.5v-9.1h10.9v10.9h-9.1v9.1h-29.1v-9.1h-9.1v-56.4h9.1v-9.1H1095.3
		 M1068,141.6h21.8h3.6v-16.4H1068V141.6 M1109.3,100.3h-14h-29.1h-14v9.1h-9.1v14v56.4v14h9.1v9.1h14h29.1h14v-9.1h9.1v-14v-10.9
		v-2.4v-14v-29.1v-14h-9.1V100.3L1109.3,100.3z"/>
	<path class="st0" d="M1154.5,114.3v9.1h3.6h5.5v20h-10.9v-18.2h-25.5v16.4h9.1v4.6h9.1v4.5h9.1v9.1h9.1v20h-9.1v9.1h-29.1v-9.1
		h-9.1v-20h10.9V178h25.5v-16.4h-9.1v-4.5h-9.1v-4.6h-9.1v-9.1h-9.1v-20h9.1v-9.1H1154.5 M1168.5,100.3h-14h-29.1h-14v9.1h-9.1v14
		v20v2.4h0v14v20v14h9.1v9.1h14h29.1h14v-9.1h9.1v-14v-20v-2.4h0v-14v-20v-14h-9.1V100.3L1168.5,100.3z"/>
</g>
<g>
	<polygon class="st0" points="252.9,33.3 246.1,33.3 246.1,55.2 252.9,55.2 252.9,51.4 255.2,51.4 256.7,51.4 256.7,37.1 
		252.9,37.1 	"/>
	<polygon class="st0" points="438.5,40.1 447.6,40.1 449.1,40.1 449.1,33.3 438.5,33.3 	"/>
	<polygon class="st0" points="512.1,37.1 508.3,37.1 508.3,51.4 512.1,51.4 512.1,55.2 515.8,55.2 515.8,55.2 518.9,55.2 
		518.9,33.3 512.1,33.3 	"/>
	<polygon class="st0" points="555.5,55.2 563,55.2 566,55.2 566,33.3 555.5,33.3 	"/>
	<polygon class="st0" points="593.2,40.1 602.2,40.1 603.7,40.1 603.7,33.3 593.2,33.3 	"/>
	<polygon class="st0" points="713.9,37.1 710.1,37.1 710.1,51.4 713.9,51.4 713.9,55.2 717.7,55.2 717.7,55.2 720.7,55.2 
		720.7,33.3 713.9,33.3 	"/>
	<polygon class="st0" points="766.7,55.2 770.5,55.2 770.5,55.2 773.5,55.2 773.5,33.3 766.7,33.3 766.7,37.1 762.9,37.1 
		762.9,51.4 766.7,51.4 	"/>
	<path class="st0" d="M774.2,65.7h4.6h1.4h4.6h4.5h0.8h5.2h0.8h4.5h4.6h1.4h4.6h12.1h6v-3.8h3.8v-6v-4.5v-6h-6h-4.5H818v-2.3h4.6
		h4.5h6v-6v-4.5v-6h-3.8v-3.8h-6h-12.1h-4.6v-5.3v-6h-6h-4.5h-0.8V7.7h-6h-4.5h-6v6v9.1h-4.6h-5.3v-9.1v-6h-6h-4.5h-6v6v9.1h-0.8
		h-4.5h-4.6h-6H732h-4.6H726h-4.6h-5.3h-6h-4.5h-6v6v5.3h-0.8H695H683h-0.8v-1.5v-6h-3.8v-3.8h-6h-12.1h-2.7h-3.3h-2.7h-1.5v-1.5v-6
		h-6h-4.5h-6v6v1.5h-3.8v0H629h-12.1h-6v3.8h-0.4v-3.8h-6h-12.1h-4.6v-5.3v-6h-6h-4.5h-6v6v5.3h-4.6h-12.1h-6v3.8h-0.4v-3.8h-6h-8.3
		h-6v3.8h-2.3l0-3.8h-6h-5.3h-6h-3.4h-1.1h-4.9h-1.1h-0.4v-1.5v-6h-6h-4.5h-6v6v1.5H477v0h-2.7h-12.1h-6v3.8h-0.4v-3.8h-6h-12.1
		h-2.7h-3.3h-2.7h-1.5v-1.5v-6h-3.8v-1.5v-6h-6h-4.5h-6v3.8h-1.9v3.8h-1.9V19h-1.9v3.8h-1.9v3.8h-1.9v3.8h-1.9v3.8h-0.4v-1.5v-6
		h-3.8v-3.8h-6h-12.1h-2.7v0h-6h-4.5h-6v3.8H354v-3.8h-6h-1.5v0h-6h-3.8h-15.8H320h-5.2H314h-8.3h-4.6v-5.3v-6h-6h-4.5h-6v6v5.3
		h-3.4h-4.6h-6h-3.4v-9.1v-6h-6h-4.5h-6v6v9.1h-5.3h-6v3.8h-3.8v6v23.4v6h3.8v3.8h6h8.3h6h1.5h6v-3.8h0.4v3.8h6h4.5h6v-3.8h0.5v3.8
		h6h4.5h0.8h5.2h0.8h4.5h6v-6V46.8h0.8h3.4v2.3h-1.9v6v4.5v6h6h16.6v0h6h4.5h6v-3.8h0.5v3.7h6h4.5h2.7v0h6h7.1v0.8V71v6h6h4.5h6
		v-3.8h1.9v-3.8h1.9v-3.8h1.9v-3.8h1.9v-3.8h1.9v-3.8h1.9v-3.8h1.9v-3.8h0.5v9.1v6h3.8v3.8h6h8.3h2.7v0h6h12.1h6v-3.8h0.4v3.8h6
		h12.1h6v-3.8h3.8v0h0.5v3.8h6h7.2V71v6h6h4.5h6v-6v-5.3h5.3h4.6v0h6h4.5h6v-6V46.8h0.8h3.4v9.1v6h3.8v3.8h6h9.1v0.8V71v6h6h8.3h6
		v-3.8h3.8v-6v-1.5h4.6h12.1h6v-3.8h0.4v3.8h6H629h6v-3.8h2.3v3.8h6h8.3h2.7v0h6h12.1h6v-3.8h3.8v-6v-5.3h0.8h15.8h0.8V71v6h6h4.5h6
		v-6v-5.3h5.3h6v-3.8h2.3v3.8h6h8.3h6h1.6h0.8h5.2h0.8h4.5h6H774.2z M807.4,32.5h3.8v-3.8h12.1v3.8h1.5h2.3v4.5h-4.5v-3.8H812v21.9
		h10.6v-3.8h4.5v4.5h-3.8v3.8h-12.1v-3.8h-3.8V32.5z M796.1,17.5h4.5v5.3h-4.5V17.5z M796.1,31.8h4.5v28h-4.5V31.8z M784.8,13.7h4.5
		v46h-4.5V13.7z M261.2,22.8h-1.1v6v15.8v6h1.1v9.1h-4.5v-3.8h-3v3.8h-8.3v-3.8h-3.8V32.5h3.8v-3.8h8.3v3.8h3V13.7h4.5V22.8z
		 M284.6,31.8v12.9h-0.8v3.8H282v3.8h-1.9v3.8h-1.9v3.8h-4.5v-3.8h-1.9v-3.8h-1.9v-3.8H268v-3.8h-0.8V28.8h3.4v15.1h1.9v3.8h1.9v3.8
		h3v-3.8h1.9v-3.8h1.9V28.8h0h3.4V31.8z M295.2,59.7h-4.5v-9.1h1.1v-6V31.8h3.4V59.7z M295.2,22.8h-3.4h-1.1v-5.3h4.5V22.8z
		 M317.8,40.8h-4.5v-7.5h-6.8v26.4h-4.5V32.5h3.8v-3.8h8.3v3.8h0h0.8v0.8v6h3V40.8z M337.4,28.8v4.5h-0.8v3.8h-1.9v3.8h-1.9v3.8H331
		v3.8h-1.9v3.8h-1.9v3h10.2v0v4.5h-16.6v-4.5h1.9v-3.8h1.9v-3.8h1.9v-3.8h1.9v-3.8h1.9v-3.8h1.9v-3h-8.3v-0.8v-3.8h12.9h0
		L337.4,28.8L337.4,28.8z M339.3,49.2h-0.4v-2.3h0.4V49.2z M341.2,45.4h-0.4v-2.3h0.4V45.4z M349.9,55.9H348v3.8h-1.6v0v-4.5v-3.8
		h0.8v-3.8h1.5v0.7v6h1.1V55.9z M349.9,34.1h-1.1v6v0.8h-1.5v-3.8h-0.8v-3.8v-4.5h1.5v3.8h1.9V34.1z M363.9,55.9v3.8h-3.4v-3.8h-1.9
		v-1.5h1.1v-6v-0.8h1.5v3.8h1.9v3.8h0.8V55.9z M363.9,32.5v0.8h-0.8v3.8h-1.9v3.8h-1.5v-0.7v-6h-1.1v-1.6h1.9v-3.8v0h3.4V32.5z
		 M384.6,56.7h-1.9v3h-9v-3.8h-2.7v-0.8v-6h-1.1v-9.9h1.1v-6v-0.8h2.7v-3.8h12.1v3.8h3.8v4.5h-4.5v-3.8h-10.6v21.9h10.2V56.7z
		 M386.4,52.9h-1.5v-1.5h1.5V52.9z M384.9,45.4h-4.6v-2.3h4.6h4.5h0.8v2.3h-1.9v0H384.9z M395.1,63.5h-1.9v3.8h-1.9V71h-4.5v-4.5
		h1.9v-0.8h3v-3.8h3.4V63.5z M407.2,33.3v3.8h-0.8v3.8h-1.9v3.8h-1.9v3.8h-1.9v3.8h-1.9v3.8H397v3.8h-1.5v-3.8v-4.5v0h0.8v-3.8h1.9
		v-3.8h1.9v-3.8h1.9v-3.8h1.9v-3.8h1.9v-3.8h1.6V33.3z M411,22.8h-1.5v-1.5h1.5V22.8z M413.2,15.2v-1.5h4.5v1.5H417H413.2z
		 M428,49.2h-0.5v-9.9h0.5V49.2z M428,32.5v0.8h-6.5v21.9h6.5v0.8v3.8h-7.2v-3.8H417V35.5h1.1v-3.8h1.9V28h1.5v0.8h3.8h2.7V32.5z
		 M452.5,40.8v0.8h0v3h-14v10.6h10.6v-3.8h3.4v4.5h-2.7v3.8h-12.1v-3.8h-2.7v-0.8v-6H434v-9.9h1.1v-6v-0.8h2.7v-3.8h12.1v3.8h2.7
		V40.8z M478.1,40.8h-4.5v-7.5H463v6.8h3.8V42h3.8v1.9h3.8v3.8h3.8v8.3h-3.8v3.8h-12.1v-3.8h-2.7v0v-4.5v-0.8v-3h3.4v7.5h10.6v-6.8
		h-3.8v-1.9H466v-1.9h-3.8v-3.8h-2.7v-8.3h2.7v-3.8h12.1v3.8h2.7v0.8v6h1.1V40.8z M497.8,49.2h-0.4v-9.9h0.4V49.2z M497.8,33.3h-6.4
		v21.9h6.4v4.5h-7.2v-3.8h-3.8V33.3h-2.7v-0.8v-3.8h2.7v-7.5h4.5v7.5h3.8h2.7V33.3z M523.4,55.9h-3.8v3.8h-8.3v-3.8h-3V71h-4.5v-5.3
		h1.1v-6v-4.5v-6h-1.1v-9.9h1.1v-6v-4.5h3.4v3.8h3v-3.8h8.3v3.8h0h3.8V55.9z M544.9,40.8h-3.4v-7.5h-6.8v26.4h-4.5V32.5h3.8v-3.8
		h8.3v3.8h0h2.7V40.8z M566.8,55.9v3.8h-12.1v-3.8h-3.8v-9.1h1.1v-6v-8.3h2.7v-3.8h12.1v3.8h3.8v23.4H566.8z M581.9,67.3h-3.8V71
		h-8.3v-4.5h7.5V31.8h4.5V67.3z M581.9,22.8h-4.5v-5.3h4.5V22.8z M607.2,44.6h-14v10.6h10.6v-3.8h3.4v4.5h-2.7v3.8h-12.1v-3.8h-3.8
		V32.5h3.8v-3.8h12.1v3.8h2.7V44.6z M632.8,55.9H629v3.8h-12.1v-3.8h-2.7v-4.5v-0.8v-6V32.5h2.7v-3.8H629v3.8h0.8v0.8v3.8h-1.5v-3.8
		h-10.6v21.9h10.6v-3.8h4.5V55.9z M633.6,45.4h-0.8h-4.5h-4.6v-2.3h4.6h4.5h0.8V45.4z M650.5,40.8v0.8h0v6v1.5h-0.4v-9.9h0.4V40.8z
		 M650.5,32.5v0.8h-6.4v21.9h6.4v0.8v3.8h-7.2v-3.8h-3.8V33.3h-0.8v-0.8v-3.8h0.8v-7.5h4.5v7.5h3.8h0h2.7V32.5z M676.2,40.8h-4.5
		v-7.5h-10.6v6.8h3.8V42h3.8v1.9h3.8v3.8h3.8v8.3h-3.8v3.8h-12.1v-3.8h-2.7v-0.8v-6h-1.1v-1.5h4.5v7.5h10.6v-6.8h-3.8v-1.9h-3.8
		v-1.9h-3.8v-3.8h-3.8v-1.5h1.1v-6v-0.8h2.7v-3.8h12.1v3.8h3.8V40.8z M698.8,44.6H683v-4.5H695h3.8V44.6z M725.2,55.9h-3.8v3.8h-8.3
		v-3.8h-3V71h-4.5V28.8h4.5v3.8h3v-3.8h8.3v3.8h3.8V55.9z M751.6,59.7h-4.5v-3.8h-3v3.8h-8.3v-3.8H732V28.8h4.5v26.4h6.8v-3.8h3.8
		V28.8h4.5V59.7z M762.9,55.9v3.8h-4.5v-46h4.5v18.9h3v-3.8h8.3v3.8h3.8v23.4h-3.8v3.8h-8.3v-3.8H762.9z"/>
</g>
<g>
	<path d="M276.4,77.9h-29.1V87h-9.1V98h9.1v9.1h9.1v7.3h-9.1v9.1h-9.1v56.4h9.1v9.1h29.1v-9.1h9.1v-56.4h-9.1v-9.1h-9.1v-9.1h-9.1
		v-9.1h-9.1v-7.3h36.4V77.9L276.4,77.9L276.4,77.9z M265.5,116.2v9.1h9.1V178h-25.5v-52.8h9.1v-9.1L265.5,116.2L265.5,116.2z"/>
	<path d="M349.2,174.4v-60.1h-10.9v9.1H331v-9.1h-20v9.1h-9.1v56.4h9.1v9.1h20v-9.1h11.8v9.1h10.9V178h-4.5V174.4L349.2,174.4z
		 M334.6,168.9h-5.5v9.1h-16.4v-52.8h16.4v9.1h9.1v34.6H334.6z"/>
	<path d="M403.8,123.4v-9.1h-20v9.1h-7.3v-9.1h-10.9v74.6h10.9v-54.6h9.1v-9.1H402v63.7h10.9v-65.5H403.8L403.8,123.4z"/>
	<path d="M429.3,114.3v74.6h10.9v-74.6H429.3z"/>
	<path d="M429.3,87v20h10.9V87C440.2,87,429.3,87,429.3,87z"/>
	<path d="M452,87v29.1h10.9V87H452z"/>
	<path d="M513,123.4v-9.1h-29.1v9.1h-9.1v20h9.1v9.1h9.1v4.6h9.1v4.6h9.1V178h-25.5v-18.2h-10.9v20h9.1v9.1H513v-9.1h9.1v-20H513
		v-9.1h-9.1v-4.6h-9.1v-4.6h-9.1v-16.4h25.5v18.2h10.9v-20L513,123.4L513,123.4z"/>
	<path d="M604,123.4v-9.1h-20v9.1h-7.3v-9.1h-10.9v101.9h10.9v-36.4h7.3v9.1h20v-9.1h9.1v-56.4L604,123.4L604,123.4z M594.9,178
		h-9.1v-9.1h-9.1v-34.6h9.1v-9.1h16.4V178H594.9z"/>
	<path d="M658.6,123.4v-9.1h-20v9.1h-9.1V189h10.9v-63.7h16.4v18.2h10.9v-20L658.6,123.4L658.6,123.4z"/>
	<path d="M726.8,179.9v-56.4h-9.1v-9.1h-29.1v9.1h-9.1v56.4h9.1v9.1h29.1v-9.1H726.8z M708.6,178h-18.2v-52.8h25.5V178H708.6
		L708.6,178z"/>
	<path d="M743.2,87v20h10.9V87C754.1,87,743.2,87,743.2,87z"/>
	<path d="M743.2,114.3v91H725v10.9h20v-9.1h9.1v-92.8H743.2z"/>
	<path d="M808.7,123.4v-9.1h-29.1v9.1h-9.1v56.4h9.1v9.1h29.1v-9.1h9.1v-10.9h-10.9v9.1h-25.5v-25.5h36.4v-29.1L808.7,123.4
		L808.7,123.4z M803.3,141.6h-21.8v-16.4h25.5v16.4H803.3L803.3,141.6z"/>
	<path d="M867.9,123.4v-9.1h-29.1v9.1h-9.1v56.4h9.1v9.1h29.1v-9.1h9.1v-10.9H866v9.1h-25.5v-52.8H866v9.1H877v-10.9
		C877,123.4,867.9,123.4,867.9,123.4z"/>
	<path d="M913.4,114.3h-9.1V96.1h-10.9v18.2h-9.1v10.9h9.1v54.6h9.1v9.1h20V178h-18.2v-52.8h18.2v-10.9L913.4,114.3L913.4,114.3z"/>
	<path d="M1004.3,87v-9.1h-29.1V87h-9.1v27.3H957v10.9h9.1V189H977v-63.7h18.2v-10.9H977V88.9h25.5v18.2h10.9V87
		C1013.4,87,1004.3,87,1004.3,87z"/>
	<path d="M1002.5,114.3v74.6h10.9v-74.6H1002.5z"/>
	<path d="M1029.8,77.9v111h10.9v-111H1029.8L1029.8,77.9z"/>
	<path d="M1095.3,123.4v-9.1h-29.1v9.1h-9.1v56.4h9.1v9.1h29.1v-9.1h9.1v-10.9h-10.9v9.1H1068v-25.5h36.4v-29.1
		C1104.4,123.4,1095.3,123.4,1095.3,123.4z M1089.9,141.6H1068v-16.4h25.5v16.4H1089.9z"/>
	<path d="M1158.1,123.4h-3.6v-9.1h-29.1v9.1h-9.1v20h9.1v9.1h9.1v4.6h9.1v4.6h9.1V178h-25.5v-18.2h-10.9v20h9.1v9.1h29.1v-9.1h9.1
		v-20h-9.1v-9.1h-9.1v-4.6h-9.1v-4.6h-9.1v-16.4h25.5v18.2h10.9v-20L1158.1,123.4L1158.1,123.4z"/>
</g>
<path class="st1" d="M88.5,59.7h45c40.6,0,73.5,32.9,73.5,73.5l0,0c0,40.6-32.9,73.5-73.5,73.5h-45c-40.6,0-73.5-32.9-73.5-73.5l0,0
	C15,92.6,47.9,59.7,88.5,59.7z"/>
<path class="st0" d="M122.3,78.7H94.5v8.7h-8.7v10.4h8.7v8.7h8.7v6.9h-8.7v8.7h-8.7v53.9h8.7v8.7h27.8v-8.7h8.7v-53.9h-8.7v-8.7
	h-8.7v-8.7H105v-8.7h-8.7v-6.9H131V78.7L122.3,78.7L122.3,78.7z M111.9,115.2v8.7h8.7v50.4H96.3v-50.4h8.7v-8.7H111.9L111.9,115.2z"
	/>
<g>
	<path d="M256.7,13.7v18.9h-3v-3.8h-8.3v3.8h-3.8v23.4h3.8v3.8h8.3v-3.8h3v3.8h4.5v-46H256.7z M255.2,51.4h-2.3v3.8h-6.8V33.3h6.8
		v3.8h3.8v14.3H255.2L255.2,51.4z"/>
	<path d="M281.2,28.8v15.1h-1.9v3.8h-1.9v3.8h-3v-3.8h-1.9v-3.8h-1.9V28.8h-4.5v15.8h1.9v3.8h1.9v3.8h1.9v3.8h1.9v3.8h4.5v-3.8h1.9
		v-3.8h1.9v-3.8h1.9v-3.8h1.9V28.8H281.2L281.2,28.8z"/>
	<path d="M290.6,17.5v8.3h4.5v-8.3H290.6z"/>
	<path d="M290.6,28.8v30.9h4.5V28.8H290.6z"/>
	<path d="M314,32.5v-3.8h-8.3v3.8h-3.8v27.2h4.5V33.3h6.8v7.5h4.5v-8.3H314L314,32.5z"/>
	<path d="M336.7,28.8h-15.8v4.5h11.3v3h-1.9v3.8h-1.9v3.8h-1.9v3.8h-1.9v3.8h-1.9v3.8h-1.9v4.5h19.6v-4.5h-13.2v-3h1.9v-3.8h1.9
		v-3.8h1.9v-3.8h1.9v-3.8h1.9v-3.8h3.8v-4.5L336.7,28.8L336.7,28.8z"/>
	<path d="M351.7,38.6v-2.3h-1.9v-3.8H348v-3.8h-4.5v4.5h1.9v3.8h1.9v3.8h1.9v6.8h-1.9v3.8h-1.9v3.8h-1.9v4.5h4.5v-3.8h1.9v-3.8h1.9
		v-3.8h1.9v-8.3h-1.9V38.6L351.7,38.6z"/>
	<path d="M360.4,28.8v3.8h-1.9v3.8h-1.9v3.8h-1.9v8.3h1.9v3.8h1.9v3.8h1.9v3.8h4.5v-4.5h-1.9v-3.8h-1.9v-3.8h-1.9v-6.8h1.9v-3.8h1.9
		v-3.8h1.9v-4.5L360.4,28.8L360.4,28.8z"/>
	<path d="M387.2,55.9h2.3v-4.5h-4.5v3.8h-10.6V33.3h10.6v3.8h4.5v-4.5h-3.8v-3.8h-12.1v3.8h-3.8v23.4h3.8v3.8h12.1v-3.8H387.2
		L387.2,55.9z"/>
	<path d="M414,25.8V22h1.9v-3.8h1.9v-4.5h-4.5v3.8h-1.9v3.8h-1.9V25h-1.9v3.8h-1.9v3.8h-1.9v3.8h-1.9v3.8H400v3.8h-1.9v3.8h-1.9v3.8
		h-1.9v3.8h-1.9v3.8h-1.9v3.8h-1.9v3.8h-1.9V71h4.5v-3.8h1.9v-3.8h1.9v-3.8h1.9v-3.8h1.9v-3.8h1.9v-3.8h1.9v-3.8h1.9v-3.8h1.9v-3.8
		h1.9v-3.8h1.9v-3.8h1.9v-3.8C412.1,25.8,414,25.8,414,25.8z"/>
	<path d="M425.3,28.8h-3.8v-7.6H417v7.5h-3.8v4.5h3.8v22.6h3.8v3.8h8.3v-4.5h-7.5V33.3h7.5v-4.5H425.3z"/>
	<path d="M449.8,32.5v-3.8h-12.1v3.8H434v23.4h3.8v3.8h12.1v-3.8h3.8v-4.5h-4.5v3.8h-10.6V44.6h15.1V32.5H449.8z M447.6,40.1h-9
		v-6.8h10.6v6.8H447.6z"/>
	<path d="M474.3,32.5v-3.8h-12.1v3.8h-3.8v8.3h3.8v3.8h3.8v1.9h3.8v1.9h3.8v6.8H463v-7.5h-4.5v8.3h3.8v3.8h12.1v-3.8h3.8v-8.3h-3.8
		v-3.8h-3.8V42h-3.8v-1.9H463v-6.8h10.6v7.5h4.5v-8.3H474.3z"/>
	<path d="M495.1,28.8h-3.8v-7.6h-4.5v7.5H483v4.5h3.8v22.6h3.8v3.8h8.3v-4.5h-7.5V33.3h7.5v-4.5H495.1z"/>
	<path d="M519.6,32.5v-3.8h-8.3v3.8h-3v-3.8h-4.5V71h4.5V55.9h3v3.8h8.3v-3.8h3.8V32.5H519.6L519.6,32.5z M515.8,55.2h-3.8v-3.8
		h-3.8V37.1h3.8v-3.8h6.8v21.9L515.8,55.2L515.8,55.2z"/>
	<path d="M542.2,32.5v-3.8h-8.3v3.8h-3.8v27.2h4.5V33.3h6.8v7.5h4.5v-8.3H542.2L542.2,32.5z"/>
	<path d="M570.5,55.9V32.5h-3.8v-3.8h-12.1v3.8h-3.8v23.4h3.8v3.8h12.1v-3.8H570.5z M563,55.2h-7.5V33.3H566v21.9H563z"/>
	<path d="M577.3,17.5v8.3h4.5v-8.3H577.3z"/>
	<path d="M577.3,28.8v37.7h-7.5V71h8.3v-3.8h3.8V28.8H577.3z"/>
	<path d="M604.5,32.5v-3.8h-12.1v3.8h-3.8v23.4h3.8v3.8h12.1v-3.8h3.8v-4.5h-4.5v3.8h-10.6V44.6h15.1V32.5H604.5z M602.2,40.1h-9
		v-6.8h10.6v6.8H602.2z"/>
	<path d="M629,32.5v-3.8h-12.1v3.8h-3.8v23.4h3.8v3.8H629v-3.8h3.8v-4.5h-4.5v3.8h-10.6V33.3h10.6v3.8h4.5v-4.5H629z"/>
	<path d="M647.9,28.8h-3.8v-7.6h-4.5v7.5h-3.8v4.5h3.8v22.6h3.8v3.8h8.3v-4.5h-7.5V33.3h7.5v-4.5H647.9L647.9,28.8z"/>
	<path d="M672.4,32.5v-3.8h-12.1v3.8h-3.8v8.3h3.8v3.8h3.8v1.9h3.8v1.9h3.8v6.8h-10.6v-7.5h-4.5v8.3h3.8v3.8h12.1v-3.8h3.8v-8.3
		h-3.8v-3.8h-3.8V42h-3.8v-1.9h-3.8v-6.8h10.6v7.5h4.5v-8.3H672.4z"/>
	<path d="M695,40.1H683v4.5h15.8v-4.5H695z"/>
	<path d="M721.4,32.5v-3.8h-8.3v3.8h-3v-3.8h-4.5V71h4.5V55.9h3v3.8h8.3v-3.8h3.8V32.5H721.4z M717.7,55.2h-3.8v-3.8h-3.8V37.1h3.8
		v-3.8h6.8v21.9L717.7,55.2L717.7,55.2z"/>
	<path d="M747.1,28.8v22.6h-3.8v3.8h-6.8V28.8H732v27.2h3.8v3.8h8.3v-3.8h3v3.8h4.5V28.8H747.1z"/>
	<path d="M774.2,32.5v-3.8h-8.3v3.8h-3V13.7h-4.5v46h4.5v-3.8h3v3.8h8.3v-3.8h3.8V32.5H774.2z M770.5,55.2h-3.8v-3.8h-3.8V37.1h3.8
		v-3.8h6.8v21.9L770.5,55.2L770.5,55.2z"/>
	<path d="M784.8,13.7v46h4.5v-46H784.8z"/>
	<path d="M796.1,28.8v30.9h4.5V28.8H796.1z"/>
	<path d="M796.1,17.5v8.3h4.5v-8.3H796.1z"/>
	<path d="M824.8,32.5h-1.5v-3.8h-12.1v3.8h-3.8v23.4h3.8v3.8h12.1v-3.8h3.8v-4.5h-4.5v3.8H812V33.3h10.6v3.8h4.5v-4.5H824.8z"/>
</g>
</svg>
